<svg width="4685" height="1257" viewBox="0 0 4685 1257" fill="none" xmlns="http://www.w3.org/2000/svg">
<path d="M1589.84 931.299L1542.8 795.939H1256.72L1209.68 931.299H1089.68L1333.52 259.298H1466L1708.88 931.299H1589.84ZM1293.2 692.258H1506.32L1399.76 388.898L1293.2 692.258ZM1988.79 943.779C1916.47 943.779 1855.99 919.459 1807.35 870.819C1759.35 822.179 1735.35 762.339 1735.35 691.298C1735.35 619.618 1759.35 559.778 1807.35 511.778C1855.99 463.138 1916.47 438.818 1988.79 438.818C2035.51 438.818 2078.07 450.018 2116.47 472.418C2154.87 494.818 2183.67 524.898 2202.87 562.658L2113.59 614.498C2102.71 591.458 2086.07 573.538 2063.67 560.738C2041.91 547.298 2016.63 540.578 1987.83 540.578C1945.59 540.578 1910.07 554.978 1881.27 583.778C1853.11 612.578 1839.03 648.418 1839.03 691.298C1839.03 734.179 1853.11 770.019 1881.27 798.819C1910.07 827.619 1945.59 842.019 1987.83 842.019C2015.99 842.019 2041.27 835.299 2063.67 821.859C2086.71 808.419 2103.99 790.499 2115.51 768.099L2204.79 818.979C2184.31 857.379 2154.87 887.779 2116.47 910.179C2078.07 932.579 2035.51 943.779 1988.79 943.779ZM2498.79 943.779C2426.47 943.779 2365.99 919.459 2317.35 870.819C2269.35 822.179 2245.35 762.339 2245.35 691.298C2245.35 619.618 2269.35 559.778 2317.35 511.778C2365.99 463.138 2426.47 438.818 2498.79 438.818C2545.52 438.818 2588.08 450.018 2626.48 472.418C2664.88 494.818 2693.68 524.898 2712.88 562.658L2623.6 614.498C2612.72 591.458 2596.08 573.538 2573.68 560.738C2551.92 547.298 2526.64 540.578 2497.83 540.578C2455.59 540.578 2420.07 554.978 2391.27 583.778C2363.11 612.578 2349.03 648.418 2349.03 691.298C2349.03 734.179 2363.11 770.019 2391.27 798.819C2420.07 827.619 2455.59 842.019 2497.83 842.019C2526 842.019 2551.28 835.299 2573.68 821.859C2596.72 808.419 2614 790.499 2625.52 768.099L2714.8 818.979C2694.32 857.379 2664.88 887.779 2626.48 910.179C2588.08 932.579 2545.52 943.779 2498.79 943.779ZM2863.84 735.459C2871.52 771.939 2889.12 800.099 2916.64 819.939C2944.16 839.139 2977.76 848.739 3017.44 848.739C3072.48 848.739 3113.76 828.899 3141.28 789.219L3226.72 839.139C3179.36 908.899 3109.28 943.779 3016.48 943.779C2938.4 943.779 2875.36 920.099 2827.36 872.739C2779.36 824.739 2755.36 764.259 2755.36 691.298C2755.36 619.618 2779.04 559.778 2826.4 511.778C2873.76 463.138 2934.56 438.818 3008.8 438.818C3079.2 438.818 3136.8 463.458 3181.6 512.738C3227.04 562.018 3249.76 621.858 3249.76 692.258C3249.76 703.138 3248.48 717.538 3245.92 735.459H2863.84ZM2862.88 650.978H3145.12C3138.08 611.938 3121.76 582.498 3096.16 562.658C3071.2 542.818 3041.76 532.898 3007.84 532.898C2969.44 532.898 2937.44 543.458 2911.84 564.578C2886.24 585.698 2869.92 614.498 2862.88 650.978ZM3593.47 438.818C3648.51 438.818 3692.99 456.418 3726.91 491.618C3760.83 526.818 3777.79 575.138 3777.79 636.578V931.299H3674.11V647.138C3674.11 611.298 3664.51 583.778 3645.31 564.578C3626.11 545.378 3599.87 535.778 3566.59 535.778C3530.11 535.778 3500.67 547.298 3478.27 570.338C3455.87 592.738 3444.67 627.298 3444.67 674.018V931.299H3340.99V451.298H3444.67V512.738C3476.03 463.458 3525.63 438.818 3593.47 438.818ZM4269.59 259.298H4373.27V931.299H4269.59V862.179C4230.55 916.579 4174.55 943.779 4101.59 943.779C4035.66 943.779 3979.34 919.459 3932.62 870.819C3885.9 821.539 3862.54 761.699 3862.54 691.298C3862.54 620.258 3885.9 560.418 3932.62 511.778C3979.34 463.138 4035.66 438.818 4101.59 438.818C4174.55 438.818 4230.55 465.698 4269.59 519.458V259.298ZM4009.42 801.699C4038.22 830.499 4074.38 844.899 4117.91 844.899C4161.43 844.899 4197.59 830.499 4226.39 801.699C4255.19 772.259 4269.59 735.459 4269.59 691.298C4269.59 647.138 4255.19 610.658 4226.39 581.858C4197.59 552.418 4161.43 537.698 4117.91 537.698C4074.38 537.698 4038.22 552.418 4009.42 581.858C3980.62 610.658 3966.22 647.138 3966.22 691.298C3966.22 735.459 3980.62 772.259 4009.42 801.699Z" fill="black"/>
<path d="M172.437 886.322C194.574 825.149 252.659 784.396 317.714 784.396H863.848C872.087 784.396 877.826 792.577 875.023 800.325L864.191 830.259C842.054 891.432 783.969 932.184 718.914 932.184H172.78C164.541 932.184 158.802 924.003 161.605 916.256L172.437 886.322Z" fill="black"/>
<path d="M266.157 625.197C288.294 564.024 346.379 523.271 411.434 523.271H957.567C965.807 523.271 971.546 531.452 968.742 539.2L957.91 569.134C935.774 630.307 877.689 671.059 812.633 671.059H266.5C258.261 671.059 252.521 662.878 255.325 655.131L266.157 625.197Z" fill="black"/>
<path d="M359.062 363.757C381.198 302.584 439.283 261.832 504.339 261.832H1050.47C1058.71 261.832 1064.45 270.013 1061.65 277.76L1050.81 307.694C1028.68 368.867 970.593 409.619 905.538 409.619H359.405C351.165 409.619 345.426 401.439 348.23 393.691L359.062 363.757Z" fill="black"/>
</svg>
